<svg width="40" height="40" viewBox="0 0 40 40" fill="none" xmlns="http://www.w3.org/2000/svg">
<g clip-path="url(#clip0_133_579)">
<path d="M39.3158 13.3533C39.744 13.2996 40.0473 12.9089 39.9939 12.4811C39.4382 8.04291 37.3368 3.88885 34.0763 0.783381C33.7638 0.485834 33.2694 0.497736 32.9715 0.810236C32.674 1.12274 32.6862 1.61743 32.9987 1.91497C35.9989 4.77234 37.9325 8.59376 38.4433 12.6752C38.4971 13.1033 38.8877 13.4067 39.3158 13.3533Z" fill="#1E9488"/>
<path d="M5.72016 13.3484C6.14374 13.4198 6.54841 13.1351 6.62043 12.7078C7.09681 9.87764 8.51984 7.2281 10.6271 5.2472C10.9417 4.95179 10.957 4.45741 10.6613 4.14308C10.3659 3.82844 9.87147 3.81318 9.55714 4.1089C7.2027 6.32234 5.61243 9.28377 5.07959 12.4484C5.00788 12.8739 5.29474 13.2767 5.72016 13.3484Z" fill="#1E9488"/>
<path d="M33.2829 12.7079C33.3543 13.1318 33.7553 13.4201 34.1828 13.3484C34.6082 13.277 34.8951 12.8739 34.8237 12.4485C34.2909 9.28409 32.7006 6.32235 30.3462 4.10891C30.0318 3.81319 29.5374 3.82876 29.2417 4.14309C28.9463 4.45742 28.9616 4.95181 29.2759 5.24752C31.3831 7.22842 32.8062 9.87796 33.2829 12.7079Z" fill="#1E9488"/>
<path d="M20 40.0779C21.723 40.0779 23.125 38.6762 23.125 36.9529V35.3904H34.0625C34.4941 35.3904 34.8438 35.0406 34.8438 34.6091V30.1905C35.0315 29.6787 34.6518 29.1407 34.1108 29.1407H34.0625C31.9086 29.1407 30.1563 27.388 30.1563 25.2344V14.9219C30.1563 12.2083 29.0998 9.65791 27.1814 7.7408C26.0413 6.59974 24.6485 5.74922 23.125 5.25666V3.20313C23.125 1.4801 21.723 0.078125 20 0.078125C18.277 0.078125 16.875 1.4801 16.875 3.20313V5.25575C12.7057 6.59913 9.84376 10.4898 9.84376 14.9219V25.2344C9.84376 27.3664 8.10975 29.1184 5.97809 29.1398C5.96863 29.1398 5.96283 29.1401 5.95337 29.1407H5.9375C5.50598 29.1407 5.15625 29.4904 5.15625 29.9219V34.6091C5.15625 35.0406 5.50598 35.3904 5.9375 35.3904H16.875V36.9529C16.875 38.6762 18.277 40.0779 20 40.0779ZM21.5625 36.9529C21.5625 37.8147 20.8615 38.5154 20 38.5154C19.1385 38.5154 18.4375 37.8147 18.4375 36.9529V35.3904H21.5625V36.9529ZM20 1.64063C20.8615 1.64063 21.5625 2.34162 21.5625 3.20313V4.88648C20.5307 4.7281 19.4693 4.7281 18.4375 4.88648V3.20313C18.4375 2.34162 19.1385 1.64063 20 1.64063ZM6.71875 30.7032H16.5329C16.9644 30.7032 17.3142 30.3531 17.3142 29.9219C17.3142 29.4904 16.9644 29.1407 16.5329 29.1407H9.75251C10.7712 28.1455 11.4063 26.7597 11.4063 25.2344V14.9219C11.4063 10.9979 14.0564 7.57539 17.851 6.59883C19.2456 6.23963 20.7544 6.23963 22.1488 6.59883C23.6307 6.9803 24.989 7.75697 26.0767 8.84553C27.6996 10.4679 28.5938 12.6261 28.5938 14.9219V25.2344C28.5938 26.7633 29.2252 28.147 30.2402 29.1407H23.5642C23.1327 29.1407 22.7829 29.4904 22.7829 29.9219C22.7829 30.3531 23.1327 30.7032 23.5642 30.7032H33.2813V33.8279H6.71875V30.7032Z" fill="#1E9488"/>
<path d="M7.00446 1.91192C7.31696 1.61438 7.32886 1.11969 7.03162 0.807185C6.73407 0.494684 6.23938 0.482782 5.92688 0.780329C2.66516 3.88611 0.562494 8.04139 0.00615717 12.4811C-0.0475538 12.9089 0.256097 13.2996 0.684259 13.3533C1.11334 13.407 1.50305 13.1027 1.55645 12.6752C2.06823 8.59223 4.00305 4.7699 7.00446 1.91192Z" fill="#1E9488"/>
<path d="M20.8298 29.9219C20.8298 30.3532 20.4801 30.7032 20.0486 30.7032C19.6171 30.7032 19.2673 30.3532 19.2673 29.9219C19.2673 29.4904 19.6171 29.1407 20.0486 29.1407C20.4801 29.1407 20.8298 29.4904 20.8298 29.9219Z" fill="#1E9488"/>
</g>
<defs>
<clipPath id="clip0_133_579">
<rect width="40" height="40" fill="white"/>
</clipPath>
</defs>
</svg>
