<svg width="32" height="32" viewBox="0 0 32 32" fill="none" xmlns="http://www.w3.org/2000/svg">
<g clip-path="url(#clip0_95_83)">
<path d="M31.3768 28.2535H3.74851V3.43802C3.71776 2.60954 2.5288 2.61017 2.49836 3.43802V5.75085H0.623074C-0.2054 5.78161 -0.204775 6.97056 0.623074 7.001H2.49836V9.5013H1.67101C0.842538 9.53205 0.843163 10.721 1.67101 10.7515H2.49836V13.2517H1.67101C0.842538 13.2825 0.843163 14.4715 1.67101 14.5019H2.49836V17.0022H0.623074C-0.2054 17.0329 -0.204775 18.2219 0.623074 18.2523H2.49836V20.7526H1.67101C0.842538 20.7833 0.843163 21.9723 1.67101 22.0027H2.49836V24.503H1.67101C0.842538 24.5338 0.843163 25.7227 1.67101 25.7532H2.49836V28.2535H0.623074C-0.2054 28.2842 -0.204775 29.4732 0.623074 29.5036H2.49836V31.379C2.52911 32.2074 3.71807 32.2068 3.74851 31.379V29.5036H6.24881V30.331C6.27956 31.1594 7.46851 31.1588 7.49896 30.331V29.5036H9.99925V30.331C10.03 31.1594 11.219 31.1588 11.2494 30.331V29.5036H13.7497V31.379C13.7805 32.2074 14.9694 32.2068 14.9999 31.379V29.5036H17.5001V30.331C17.5309 31.1594 18.7199 31.1588 18.7503 30.331V29.5036H21.2506V30.331C21.2813 31.1594 22.4703 31.1588 22.5007 30.331V29.5036H25.001V31.379C25.0318 32.2074 26.2207 32.2068 26.2512 31.379V29.5036H31.3769C32.2053 29.4729 32.2047 28.2839 31.3768 28.2535Z" fill="#DA6969"/>
<path d="M10.6243 23.8779C12.9323 23.8781 13.9917 20.9813 12.2652 19.4935L14.761 14.5018H14.9998C15.6228 14.5026 15.8553 13.6782 15.3366 13.3507L17.6016 8.82058C17.9373 8.89427 18.313 8.89427 18.6486 8.82058L20.9137 13.3507C20.3947 13.6783 20.6278 14.5027 21.2505 14.5018H21.4893L23.9852 19.4935C22.2583 20.9816 23.3188 23.8785 25.626 23.8779C27.0047 23.8779 28.1263 22.7562 28.1263 21.3776C28.1453 19.809 26.6295 18.5875 25.1024 18.9328L22.8374 14.4027C23.3564 14.0751 23.1234 13.2507 22.5006 13.2516H22.2618L19.766 8.25989C21.4929 6.77152 20.4323 3.87499 18.125 3.87549C15.8178 3.87499 14.7572 6.7719 16.4842 8.25989L13.9883 13.2516H13.7496C13.1265 13.2508 12.894 14.0753 13.4128 14.4027L11.1478 18.9328C9.62051 18.5877 8.10495 19.8088 8.12396 21.3776C8.12396 22.7562 9.24553 23.8779 10.6243 23.8779ZM26.8761 21.3776C26.8761 22.0669 26.3153 22.6277 25.626 22.6277C23.9698 22.5649 23.9702 20.19 25.626 20.1274C26.3153 20.1274 26.8761 20.6882 26.8761 21.3776ZM18.1251 5.1257C18.8144 5.1257 19.3752 5.68652 19.3752 6.37585C19.3124 8.03205 16.9376 8.03161 16.8749 6.37585C16.875 5.68652 17.4358 5.1257 18.1251 5.1257ZM10.6243 20.1274C11.3136 20.1274 11.8744 20.6882 11.8744 21.3776C11.8116 23.0338 9.43668 23.0333 9.37411 21.3776C9.37411 20.6882 9.93492 20.1274 10.6243 20.1274Z" fill="#DA6969"/>
<path d="M6.24881 14.5016H7.49896C8.32743 14.4709 8.3268 13.2819 7.49896 13.2515H6.24881C5.42033 13.2822 5.42096 14.4712 6.24881 14.5016Z" fill="#DA6969"/>
<path d="M9.99929 14.5016H11.2494C12.0779 14.4709 12.0773 13.2819 11.2494 13.2515H9.99929C9.17082 13.2822 9.17145 14.4712 9.99929 14.5016Z" fill="#DA6969"/>
<path d="M17.5 13.2515C16.6716 13.2822 16.6722 14.4712 17.5 14.5016H18.7502C19.5786 14.4709 19.578 13.2819 18.7502 13.2515H17.5Z" fill="#DA6969"/>
<path d="M25.001 14.5016H26.2512C27.0796 14.4709 27.079 13.2819 26.2512 13.2515H25.001C24.1725 13.2822 24.1732 14.4712 25.001 14.5016Z" fill="#DA6969"/>
<path d="M28.7515 14.5016H30.0016C30.8301 14.4709 30.8295 13.2819 30.0016 13.2515H28.7515C27.923 13.2822 27.9236 14.4712 28.7515 14.5016Z" fill="#DA6969"/>
<path d="M3.12332 1.25015C3.95179 1.2194 3.95117 0.0304411 3.12332 0H3.12288C2.29434 0.0308787 2.29547 1.21983 3.12332 1.25015Z" fill="#DA6969"/>
</g>
<defs>
<clipPath id="clip0_95_83">
<rect width="32" height="32" fill="white"/>
</clipPath>
</defs>
</svg>
