<svg width="40" height="40" viewBox="0 0 40 40" fill="none" xmlns="http://www.w3.org/2000/svg">
<path d="M0 19.9999C0 31.0279 8.97187 39.9998 19.9999 39.9998C31.0279 39.9998 39.9998 31.0279 39.9998 19.9999C39.9998 8.97187 31.0281 0 19.9999 0C8.97163 0 0 8.97187 0 19.9999ZM19.9999 36.4233C10.9441 36.4233 3.57673 29.0559 3.57673 19.9999C3.57673 16.1151 4.93541 12.5431 7.199 9.72799L30.2718 32.8008C27.4566 35.0644 23.8849 36.4233 19.9999 36.4233ZM36.423 19.9999C36.423 23.8847 35.0643 27.4566 32.801 30.2718L9.72799 7.199C12.5431 4.93541 16.1151 3.57673 19.9999 3.57673C29.0557 3.57673 36.423 10.9441 36.423 19.9999Z" fill="#8C8C8C"/>
</svg>
