<svg width="24" height="24" viewBox="0 0 24 24" fill="none" xmlns="http://www.w3.org/2000/svg">
<path d="M18.0255 23.2969H1.86597C1.41367 23.2969 1.04565 22.9289 1.04565 22.4766V12.7661C1.04565 12.5719 0.888295 12.4146 0.694092 12.4146C0.499889 12.4146 0.342529 12.5719 0.342529 12.7661V22.4766C0.342529 23.3166 1.02592 24 1.86597 24H18.0255C18.2197 24 18.377 23.8427 18.377 23.6485C18.377 23.4543 18.2196 23.2969 18.0255 23.2969Z" fill="white"/>
<path d="M16.9867 14.9823H20.7882C21.1182 14.9823 21.3867 14.7139 21.3867 14.3838V10.5823C21.3867 10.2523 21.1182 9.98376 20.7882 9.98376H16.9867C16.6566 9.98376 16.3882 10.2523 16.3882 10.5823V14.3838C16.3881 14.7139 16.6566 14.9823 16.9867 14.9823ZM17.0913 10.6869H20.6836V14.2792H17.0913V10.6869Z" fill="white"/>
<path d="M9.50073 20.8267C9.50073 21.1567 9.76923 21.4252 10.0992 21.4252H13.9008C14.2308 21.4252 14.4993 21.1568 14.4993 20.8267V17.0252C14.4993 16.6951 14.2308 16.4266 13.9008 16.4266H10.0992C9.76923 16.4266 9.50073 16.6951 9.50073 17.0252V20.8267ZM10.2039 17.1298H13.7961V20.7221H10.2039V17.1298Z" fill="white"/>
<path d="M2.61328 20.8267C2.61328 21.1567 2.88178 21.4252 3.21183 21.4252H7.01334C7.34339 21.4252 7.61189 21.1568 7.61189 20.8267V17.0252C7.61189 16.6951 7.34339 16.4266 7.01334 16.4266H3.21183C2.88178 16.4266 2.61328 16.6951 2.61328 17.0252V20.8267ZM3.31641 17.1298H6.90872V20.7221H3.31641V17.1298Z" fill="white"/>
<path d="M16.3881 20.8267C16.3881 21.1567 16.6565 21.4252 16.9866 21.4252H20.7881C21.1181 21.4252 21.3866 21.1568 21.3866 20.8267V17.0252C21.3866 16.6951 21.1181 16.4266 20.7881 16.4266H16.9866C16.6565 16.4266 16.3881 16.6951 16.3881 17.0252V20.8267ZM17.0912 17.1298H20.6835V20.7221H17.0912V17.1298Z" fill="white"/>
<path d="M13.9008 9.98376H10.0992C9.76923 9.98376 9.50073 10.2523 9.50073 10.5823V14.3838C9.50073 14.7139 9.76923 14.9823 10.0992 14.9823H13.9008C14.2308 14.9823 14.4993 14.7139 14.4993 14.3838V12.2576L15.4086 11.3421C15.5455 11.2043 15.5447 10.9817 15.4069 10.8449C15.2692 10.7081 15.0466 10.7089 14.9097 10.8466L14.4992 11.2599V10.5824C14.4992 10.2523 14.2308 9.98376 13.9008 9.98376ZM13.7961 14.2792H10.2039V10.6869H13.7961V11.9677L12.782 12.9888L12.012 12.2322C11.8735 12.0962 11.651 12.0982 11.5148 12.2367C11.3788 12.3752 11.3807 12.5977 11.5193 12.7339L12.5387 13.7354C12.6072 13.8026 12.6962 13.8361 12.7851 13.8361C12.8755 13.8361 12.9658 13.8015 13.0345 13.7323L13.7961 12.9655V14.2792Z" fill="white"/>
<path d="M7.0133 9.98376H3.21183C2.88178 9.98376 2.61328 10.2523 2.61328 10.5823V14.3838C2.61328 14.7139 2.88178 14.9823 3.21183 14.9823H7.01334C7.34339 14.9823 7.61189 14.7139 7.61189 14.3838V11.9391L8.20486 11.342C8.34169 11.2043 8.34089 10.9816 8.20317 10.8449C8.06536 10.708 7.84275 10.7088 7.70597 10.8465L7.61184 10.9413V10.5823C7.61184 10.2523 7.34334 9.98376 7.0133 9.98376ZM6.90872 14.2792H3.31641V10.6869H6.90872V11.6492L5.57827 12.9887L4.8082 12.2322C4.66978 12.0962 4.44713 12.0981 4.31109 12.2366C4.17502 12.3751 4.17698 12.5977 4.3155 12.7337L5.33494 13.7353C5.40338 13.8025 5.49234 13.836 5.58131 13.836C5.67169 13.836 5.76202 13.8014 5.83073 13.7322L6.90872 12.6469V14.2792Z" fill="white"/>
<path d="M22.134 2.29453H20.43V1.46372C20.43 0.656625 19.7733 0 18.9662 0C18.1591 0 17.5025 0.656625 17.5025 1.46372V2.29453H13.4636V1.46372C13.4637 0.656625 12.8071 0 12 0C11.1929 0 10.5362 0.656625 10.5362 1.46372V2.29453H6.4974V1.46372C6.4974 0.656625 5.84078 0 5.03373 0C4.22659 0 3.56997 0.656625 3.56997 1.46372V2.29453H1.86597C1.02592 2.29453 0.342529 2.97792 0.342529 3.81797V11.2339C0.342529 11.4281 0.499889 11.5854 0.694092 11.5854C0.888295 11.5854 1.04565 11.4281 1.04565 11.2339V8.05087H14.923C15.1172 8.05087 15.2746 7.89352 15.2746 7.69931C15.2746 7.50511 15.1172 7.34775 14.923 7.34775H1.04565V3.81797C1.04565 3.36567 1.41367 2.99766 1.86597 2.99766H3.56997V3.82852C3.56997 4.63561 4.22659 5.29223 5.03373 5.29223C5.84083 5.29223 6.49745 4.63561 6.49745 3.82852V2.99766H10.5363V3.82852C10.5363 4.63561 11.1929 5.29223 12 5.29223C12.8071 5.29223 13.4637 4.63561 13.4637 3.82852V2.99766H17.5026V3.82852C17.5026 4.63561 18.1592 5.29223 18.9663 5.29223C19.7734 5.29223 20.4301 4.63561 20.4301 3.82852V2.99766H22.1341C22.5864 2.99766 22.9544 3.36567 22.9544 3.81797V7.34775H16.4552C16.2609 7.34775 16.1036 7.50511 16.1036 7.69931C16.1036 7.89352 16.2609 8.05087 16.4552 8.05087H22.9543V22.4766C22.9543 22.9289 22.5863 23.2969 22.134 23.2969H19.5577C19.3635 23.2969 19.2061 23.4542 19.2061 23.6484C19.2061 23.8426 19.3635 24 19.5577 24H22.134C22.974 24 23.6574 23.3166 23.6574 22.4766V3.81797C23.6574 2.97792 22.974 2.29453 22.134 2.29453ZM5.79428 3.82852C5.79428 4.24791 5.45312 4.58911 5.03369 4.58911C4.61429 4.58911 4.27304 4.24795 4.27304 3.82852V1.46372C4.27309 1.04428 4.61429 0.703125 5.03373 0.703125C5.45312 0.703125 5.79433 1.04428 5.79433 1.46372V3.82852H5.79428ZM12.7606 3.82852C12.7606 4.24791 12.4194 4.58911 12 4.58911C11.5805 4.58911 11.2394 4.24795 11.2394 3.82852V1.46372C11.2394 1.04428 11.5806 0.703125 12 0.703125C12.4194 0.703125 12.7606 1.04428 12.7606 1.46372V3.82852ZM19.7268 3.82852C19.7268 4.24791 19.3856 4.58911 18.9662 4.58911C18.5468 4.58911 18.2056 4.24795 18.2056 3.82852V1.46372C18.2056 1.04433 18.5468 0.703125 18.9662 0.703125C19.3856 0.703125 19.7268 1.04428 19.7268 1.46372V3.82852Z" fill="white"/>
</svg>
