<svg width="24" height="24" viewBox="0 0 24 24" fill="none" xmlns="http://www.w3.org/2000/svg">
<path d="M10.3572 22.1253C10.2399 22.1253 10.1244 22.0705 10.0512 21.967C9.04361 20.5476 8.85873 18.679 9.56861 17.0905C9.65336 16.9015 9.87386 16.8153 10.064 16.9008C10.253 16.9859 10.3377 17.2068 10.2534 17.3965C9.65148 18.7435 9.80786 20.3283 10.6629 21.5324C10.7825 21.7015 10.7431 21.9359 10.5744 22.0555C10.508 22.1024 10.4322 22.1253 10.3572 22.1253Z" fill="#C45A3B"/>
<path d="M13.4458 22.1252C13.376 22.1252 13.3059 22.1054 13.2433 22.0652C13.0689 21.9531 13.0186 21.721 13.1308 21.5474C14.9938 18.6535 14.4354 14.7745 11.8314 12.5245C11.675 12.3891 11.6574 12.1525 11.7928 11.9957C11.9285 11.8382 12.1651 11.8221 12.3219 11.9567C15.206 14.4497 15.8251 18.7469 13.7611 21.9527C13.6899 22.0645 13.5695 22.1252 13.4458 22.1252Z" fill="#C45A3B"/>
<path d="M9.91055 17.6186C9.85955 17.6186 9.8078 17.6085 9.75792 17.5856C9.56892 17.5013 9.48417 17.2796 9.56855 17.0906C9.96567 16.2023 10.167 15.258 10.167 14.2856C10.167 14.0783 10.3347 13.9106 10.542 13.9106C10.7494 13.9106 10.917 14.0783 10.917 14.2856C10.917 15.3645 10.6935 16.4111 10.2533 17.397C10.191 17.5361 10.0542 17.6186 9.91055 17.6186Z" fill="#C45A3B"/>
<path d="M11.3619 17.568C11.3491 17.568 11.3364 17.5672 11.3233 17.5665C11.1174 17.5451 10.9674 17.3614 10.988 17.1547C11.0848 16.2086 10.8204 15.2696 10.2433 14.5129C10.118 14.3482 10.1499 14.1124 10.3141 13.9871C10.4795 13.8611 10.7143 13.8934 10.8399 14.058C11.5325 14.967 11.8498 16.0942 11.7343 17.2309C11.7148 17.4244 11.552 17.568 11.3619 17.568Z" fill="#C45A3B"/>
<path d="M11.3611 17.5684C11.2801 17.5684 11.1984 17.5429 11.1298 17.4885C10.9666 17.3603 10.9385 17.1244 11.0668 16.962C12.0853 15.6664 12.3391 13.9107 11.729 12.3799C11.6521 12.1879 11.7459 11.9697 11.9386 11.8928C12.1306 11.8152 12.3493 11.9104 12.4258 12.1024C13.1349 13.8807 12.8398 15.9207 11.6566 17.4255C11.5824 17.5193 11.4725 17.5684 11.3611 17.5684Z" fill="#C45A3B"/>
<path d="M15.4717 9.42201C15.3914 9.42201 15.3104 9.39651 15.2422 9.34364C15.0783 9.21614 15.0487 8.98026 15.1758 8.81714C15.8403 7.96176 15.9749 6.81839 15.5276 5.83176C15.4417 5.64351 15.5253 5.42076 15.7139 5.33601C15.9026 5.24901 16.1249 5.33376 16.2101 5.52201C16.7733 6.76214 16.6042 8.20139 15.7683 9.27726C15.6944 9.37214 15.5838 9.42201 15.4717 9.42201Z" fill="#C45A3B"/>
<path d="M15.4718 9.42208C15.2929 9.42208 15.135 9.29458 15.1031 9.11233C14.6123 6.3392 12.9229 3.95683 10.4674 2.57683C10.287 2.47558 10.2229 2.24645 10.3241 2.06645C10.4258 1.8857 10.6538 1.82195 10.8349 1.92283C13.4865 3.41345 15.3116 5.98633 15.8415 8.98183C15.8779 9.1862 15.7414 9.38045 15.5374 9.41608C15.5153 9.42058 15.4931 9.42208 15.4718 9.42208Z" fill="#C45A3B"/>
<path d="M8.0929 10.2535C7.91778 10.2535 7.7614 10.1305 7.72578 9.9524C7.5664 9.16152 7.21278 8.41302 6.7024 7.78827C6.57153 7.62777 6.5959 7.39115 6.7564 7.26027C6.91803 7.12902 7.15353 7.1549 7.28403 7.31465C7.87015 8.0339 8.2774 8.89452 8.46115 9.80502C8.50203 10.0079 8.37078 10.2055 8.16753 10.2468C8.1424 10.2513 8.11728 10.2535 8.0929 10.2535Z" fill="#C45A3B"/>
<path d="M8.09295 10.2534C8.01458 10.2534 7.93545 10.2286 7.86758 10.178C7.7022 10.0535 7.6692 9.81836 7.7937 9.65299C9.39008 7.53274 10.2713 4.90324 10.2758 2.24974C10.2762 2.04236 10.4438 1.87549 10.6508 1.87549H10.6516C10.8586 1.87549 11.0262 2.04386 11.0258 2.25124C11.0213 5.06599 10.0861 7.85486 8.39295 10.1041C8.31945 10.2012 8.20695 10.2534 8.09295 10.2534Z" fill="#C45A3B"/>
<path d="M19.1029 14.4041C19.0973 14.4041 19.0924 14.4041 19.0868 14.4041C18.8798 14.3954 18.7193 14.2203 18.7279 14.0137C18.8528 11.0152 17.7136 8.07294 15.6019 5.94106C15.4561 5.79369 15.4576 5.55669 15.6046 5.41081C15.7523 5.26494 15.9889 5.26644 16.1352 5.41306C18.3927 7.69306 19.6111 10.8397 19.4772 14.0456C19.4689 14.2466 19.3032 14.4041 19.1029 14.4041Z" fill="#C45A3B"/>
<path d="M13.4461 22.1252C13.2927 22.1252 13.1487 22.0307 13.0936 21.8777C13.0231 21.6827 13.1236 21.4682 13.3186 21.3973C16.4656 20.2562 18.5892 17.3582 18.7283 14.0139C18.7369 13.8073 18.9124 13.6374 19.1187 13.6551C19.3257 13.6629 19.4862 13.8381 19.4776 14.0454C19.3257 17.6942 17.0086 20.8577 13.5743 22.1027C13.5319 22.1177 13.4888 22.1252 13.4461 22.1252Z" fill="#C45A3B"/>
<path d="M10.3572 22.1252C10.3298 22.1252 10.302 22.1222 10.2735 22.1159C7.92453 21.5834 5.91453 19.8621 5.02766 17.6237C4.21916 15.5852 4.36953 13.2227 5.43041 11.3042C5.53091 11.1235 5.75816 11.0575 5.94003 11.1576C6.12078 11.2581 6.18679 11.4857 6.08666 11.6672C5.13341 13.3907 4.99803 15.5147 5.72478 17.347C6.52203 19.3581 8.32841 20.905 10.4397 21.3835C10.6414 21.4296 10.7682 21.6302 10.7224 21.8324C10.683 22.0075 10.5285 22.1252 10.3572 22.1252Z" fill="#C45A3B"/>
<path d="M5.75806 11.8613C5.69656 11.8613 5.63468 11.8459 5.57731 11.8144C5.39618 11.7139 5.33018 11.4855 5.43031 11.3048C6.08168 10.1261 6.48218 8.85038 6.61981 7.51313C6.64156 7.3065 6.82231 7.16025 7.03156 7.17825C7.23781 7.19963 7.38743 7.38338 7.36643 7.59C7.21793 9.0285 6.78743 10.401 6.08693 11.6674C6.01831 11.7908 5.89043 11.8613 5.75806 11.8613Z" fill="#C45A3B"/>
</svg>
