<svg width="16" height="22" viewBox="0 0 16 22" fill="none" xmlns="http://www.w3.org/2000/svg">
<path d="M6.35711 21.1254C6.23973 21.1254 6.12423 21.0706 6.05111 20.9671C5.04348 19.5477 4.85861 17.6791 5.56848 16.0906C5.65323 15.9016 5.87373 15.8154 6.06386 15.9009C6.25286 15.986 6.33761 16.2069 6.25323 16.3966C5.65136 17.7436 5.80773 19.3284 6.66273 20.5325C6.78236 20.7016 6.74298 20.936 6.57423 21.0556C6.50786 21.1025 6.43211 21.1254 6.35711 21.1254Z" fill="white"/>
<path d="M9.44565 21.1254C9.3759 21.1254 9.30577 21.1055 9.24315 21.0654C9.06877 20.9532 9.01852 20.7211 9.13065 20.5475C10.9936 17.6536 10.4353 13.7746 7.83127 11.5246C7.6749 11.3892 7.65727 11.1526 7.79265 10.9959C7.9284 10.8384 8.16502 10.8222 8.32177 10.9569C11.2059 13.4499 11.825 17.747 9.76102 20.9529C9.68977 21.0646 9.5694 21.1254 9.44565 21.1254Z" fill="white"/>
<path d="M5.91055 16.6185C5.85955 16.6185 5.8078 16.6084 5.75792 16.5855C5.56892 16.5011 5.48417 16.2795 5.56855 16.0905C5.96567 15.2021 6.16705 14.2579 6.16705 13.2855C6.16705 13.0781 6.33467 12.9105 6.54205 12.9105C6.74942 12.9105 6.91705 13.0781 6.91705 13.2855C6.91705 14.3644 6.69355 15.411 6.2533 16.3969C6.19105 16.536 6.05417 16.6185 5.91055 16.6185Z" fill="white"/>
<path d="M7.36178 16.5684C7.34903 16.5684 7.33628 16.5676 7.32315 16.5669C7.11728 16.5455 6.96728 16.3617 6.9879 16.1551C7.08465 15.209 6.82028 14.27 6.24315 13.5132C6.1179 13.3486 6.14978 13.1127 6.31403 12.9875C6.4794 12.8615 6.71415 12.8937 6.83978 13.0584C7.5324 13.9674 7.84965 15.0946 7.73415 16.2312C7.71465 16.4247 7.5519 16.5684 7.36178 16.5684Z" fill="white"/>
<path d="M7.36101 16.5683C7.28001 16.5683 7.19826 16.5428 7.12963 16.4884C6.96651 16.3602 6.93838 16.1243 7.06663 15.9619C8.08513 14.6663 8.33901 12.9105 7.72888 11.3798C7.65201 11.1878 7.74576 10.9695 7.93851 10.8927C8.13051 10.815 8.34913 10.9103 8.42563 11.1023C9.13476 12.8805 8.83963 14.9205 7.65651 16.4254C7.58226 16.5192 7.47238 16.5683 7.36101 16.5683Z" fill="white"/>
<path d="M11.4718 8.42226C11.3916 8.42226 11.3106 8.39676 11.2423 8.34388C11.0784 8.21638 11.0488 7.98051 11.1759 7.81738C11.8404 6.96201 11.9751 5.81863 11.5277 4.83201C11.4418 4.64376 11.5254 4.42101 11.7141 4.33626C11.9027 4.24926 12.1251 4.33401 12.2102 4.52226C12.7734 5.76238 12.6043 7.20163 11.7684 8.27751C11.6946 8.37238 11.5839 8.42226 11.4718 8.42226Z" fill="white"/>
<path d="M11.4718 8.4222C11.2929 8.4222 11.135 8.2947 11.1031 8.11245C10.6123 5.33932 8.92288 2.95695 6.46738 1.57695C6.28701 1.4757 6.22288 1.24658 6.32413 1.06658C6.42576 0.885826 6.65376 0.822076 6.83488 0.922951C9.48651 2.41358 11.3116 4.98645 11.8415 7.98195C11.8779 8.18633 11.7414 8.38058 11.5374 8.4162C11.5153 8.4207 11.4931 8.4222 11.4718 8.4222Z" fill="white"/>
<path d="M4.0929 9.25352C3.91778 9.25352 3.7614 9.13052 3.72578 8.9524C3.5664 8.16152 3.21278 7.41302 2.7024 6.78827C2.57153 6.62777 2.5959 6.39115 2.7564 6.26027C2.91803 6.12902 3.15353 6.1549 3.28403 6.31465C3.87015 7.0339 4.2774 7.89452 4.46115 8.80502C4.50203 9.0079 4.37078 9.20552 4.16753 9.24677C4.1424 9.25127 4.11728 9.25352 4.0929 9.25352Z" fill="white"/>
<path d="M4.09295 9.25361C4.01458 9.25361 3.93545 9.22886 3.86758 9.17823C3.7022 9.05373 3.6692 8.81861 3.7937 8.65323C5.39008 6.53298 6.27133 3.90348 6.27583 1.24998C6.2762 1.04261 6.44383 0.875732 6.65083 0.875732H6.65158C6.85858 0.875732 7.0262 1.04411 7.02583 1.25148C7.02133 4.06623 6.08608 6.85511 4.39295 9.10436C4.31945 9.20148 4.20695 9.25361 4.09295 9.25361Z" fill="white"/>
<path d="M15.1029 13.4041C15.0973 13.4041 15.0924 13.4041 15.0868 13.4041C14.8798 13.3954 14.7193 13.2203 14.7279 13.0137C14.8528 10.0152 13.7136 7.07294 11.6019 4.94106C11.4561 4.79369 11.4576 4.55669 11.6046 4.41081C11.7523 4.26494 11.9889 4.26644 12.1352 4.41306C14.3927 6.69306 15.6111 9.83969 15.4772 13.0456C15.4689 13.2466 15.3032 13.4041 15.1029 13.4041Z" fill="white"/>
<path d="M9.44607 21.1253C9.29269 21.1253 9.14869 21.0308 9.09357 20.8778C9.02307 20.6828 9.12357 20.4683 9.31857 20.3974C12.4656 19.2563 14.5892 16.3583 14.7283 13.0141C14.7369 12.8074 14.9124 12.6376 15.1187 12.6552C15.3257 12.6631 15.4862 12.8382 15.4776 13.0456C15.3257 16.6943 13.0086 19.8578 9.57432 21.1028C9.53194 21.1178 9.48882 21.1253 9.44607 21.1253Z" fill="white"/>
<path d="M6.35716 21.1254C6.32978 21.1254 6.30203 21.1224 6.27353 21.116C3.92453 20.5835 1.91453 18.8622 1.02766 16.6239C0.21916 14.5854 0.369535 12.2229 1.43041 10.3044C1.53091 10.1236 1.75816 10.0576 1.94003 10.1577C2.12078 10.2582 2.18679 10.4859 2.08666 10.6674C1.13341 12.3909 0.998035 14.5149 1.72478 16.3471C2.52203 18.3582 4.32841 19.9051 6.43966 20.3836C6.64141 20.4297 6.76816 20.6304 6.72241 20.8325C6.68303 21.0076 6.52853 21.1254 6.35716 21.1254Z" fill="white"/>
<path d="M1.75818 10.8613C1.69668 10.8613 1.6348 10.8459 1.57743 10.8144C1.3963 10.7139 1.3303 10.4855 1.43043 10.3048C2.0818 9.12613 2.4823 7.85038 2.61993 6.51313C2.64168 6.3065 2.82243 6.16025 3.03168 6.17825C3.23793 6.19963 3.38755 6.38338 3.36655 6.59C3.21805 8.0285 2.78755 9.40101 2.08705 10.6674C2.01843 10.7908 1.89055 10.8613 1.75818 10.8613Z" fill="white"/>
</svg>
