<svg width="40" height="40" viewBox="0 0 40 40" fill="none" xmlns="http://www.w3.org/2000/svg">
<path d="M25 31.25H7.58972C7.74902 30.625 8.09692 29.9213 8.45886 29.5587L9.55872 28.4589C10.5231 27.4951 11.25 25.7391 11.25 24.375V17.5C11.25 16.8097 10.6903 16.25 10 16.25C9.30969 16.25 8.75 16.8097 8.75 17.5V24.375C8.75 25.0726 8.28369 26.1981 7.79114 26.6913L6.69128 27.7911C5.72693 28.7549 5 30.5109 5 31.875V32.5C5 33.1903 5.55969 33.75 6.25 33.75H16.25V35C16.25 37.0679 17.9321 38.75 20 38.75C22.0679 38.75 23.75 37.0679 23.75 35V33.75H25C25.6903 33.75 26.25 33.1903 26.25 32.5C26.25 31.8097 25.6903 31.25 25 31.25ZM21.25 35C21.25 35.6891 20.6891 36.25 20 36.25C19.3109 36.25 18.75 35.6891 18.75 35V33.75H21.25V35ZM38.3838 36.6162L34.8425 33.075C34.9347 32.9004 35 32.7112 35 32.5V31.875C35 30.5109 34.2731 28.7549 33.3087 27.7911L32.2089 26.6913C31.7163 26.1981 31.25 25.0726 31.25 24.375V15C31.25 9.21997 26.8665 4.44824 21.25 3.82385V2.5C21.25 1.80969 20.6903 1.25 20 1.25C19.3097 1.25 18.75 1.80969 18.75 2.5V3.84155C15.4199 4.2157 12.428 6.04797 10.6012 8.83362L3.38379 1.61621C2.89551 1.12793 2.10449 1.12793 1.61621 1.61621C1.12793 2.10449 1.12793 2.89551 1.61621 3.38379L36.6162 38.3838C36.8604 38.6279 37.1802 38.75 37.5 38.75C37.8198 38.75 38.1396 38.6279 38.3838 38.3838C38.8721 37.8955 38.8721 37.1045 38.3838 36.6162ZM20 6.25C24.8248 6.25 28.75 10.1752 28.75 15V24.375C28.75 25.7391 29.4769 27.4951 30.4413 28.4589L31.5411 29.5587C31.7108 29.7284 31.875 29.9768 32.0209 30.2533L12.428 10.6604C13.9709 7.96387 16.8475 6.25 20 6.25V6.25Z" fill="#BC3135"/>
</svg>
