<svg width="40" height="40" viewBox="0 0 40 40" fill="none" xmlns="http://www.w3.org/2000/svg">
<path d="M20 31.5234C21.0787 31.5234 21.9531 30.649 21.9531 29.5703C21.9531 28.4916 21.0787 27.6172 20 27.6172C18.9213 27.6172 18.0469 28.4916 18.0469 29.5703C18.0469 30.649 18.9213 31.5234 20 31.5234Z" fill="white"/>
<path d="M20 0C8.94656 0 0 8.94508 0 20C0 31.0534 8.94508 40 20 40C31.0534 40 40 31.0549 40 20C40 8.94656 31.0549 0 20 0ZM20 36.875C10.6737 36.875 3.125 29.3276 3.125 20C3.125 10.6737 10.6724 3.125 20 3.125C29.3263 3.125 36.875 10.6724 36.875 20C36.875 29.3263 29.3276 36.875 20 36.875Z" fill="white"/>
<path d="M20 10.0391C16.5538 10.0391 13.75 12.8428 13.75 16.2891C13.75 17.152 14.4495 17.8516 15.3125 17.8516C16.1755 17.8516 16.875 17.152 16.875 16.2891C16.875 14.5659 18.2769 13.1641 20 13.1641C21.7231 13.1641 23.125 14.5659 23.125 16.2891C23.125 18.0122 21.7231 19.4141 20 19.4141C19.137 19.4141 18.4375 20.1136 18.4375 20.9766V24.8828C18.4375 25.7458 19.137 26.4453 20 26.4453C20.863 26.4453 21.5625 25.7458 21.5625 24.8828V22.3413C24.2552 21.6458 26.25 19.196 26.25 16.2891C26.25 12.8428 23.4462 10.0391 20 10.0391Z" fill="white"/>
</svg>
