<svg width="24" height="24" viewBox="0 0 24 24" fill="none" xmlns="http://www.w3.org/2000/svg">
<path d="M17.25 23.25C16.0633 23.25 14.9033 22.8981 13.9166 22.2388C12.9299 21.5795 12.1609 20.6425 11.7067 19.5461C11.2526 18.4497 11.1338 17.2433 11.3653 16.0795C11.5968 14.9156 12.1682 13.8465 13.0074 13.0074C13.8465 12.1682 14.9156 11.5968 16.0795 11.3653C17.2433 11.1338 18.4497 11.2526 19.5461 11.7067C20.6425 12.1609 21.5795 12.9299 22.2388 13.9166C22.8981 14.9033 23.25 16.0633 23.25 17.25C23.2481 18.8407 22.6154 20.3658 21.4906 21.4906C20.3658 22.6154 18.8407 23.2481 17.25 23.25ZM17.25 12C16.2117 12 15.1966 12.3079 14.3333 12.8848C13.4699 13.4617 12.797 14.2816 12.3996 15.2409C12.0023 16.2002 11.8983 17.2558 12.1009 18.2742C12.3035 19.2926 12.8035 20.2281 13.5377 20.9623C14.2719 21.6965 15.2074 22.1966 16.2258 22.3991C17.2442 22.6017 18.2998 22.4977 19.2591 22.1004C20.2184 21.703 21.0383 21.0301 21.6152 20.1667C22.1921 19.3034 22.5 18.2884 22.5 17.25C22.4985 15.8581 21.9449 14.5236 20.9607 13.5393C19.9764 12.5551 18.6419 12.0015 17.25 12Z" fill="#E92FCB"/>
<path d="M17.2499 17.6248C17.1758 17.6248 17.1033 17.6028 17.0416 17.5616C16.98 17.5204 16.9319 17.4618 16.9035 17.3933C16.8752 17.3248 16.8677 17.2494 16.8822 17.1767C16.8967 17.1039 16.9324 17.0371 16.9848 16.9847L19.6098 14.3597C19.6805 14.2914 19.7752 14.2536 19.8736 14.2544C19.9719 14.2553 20.0659 14.2947 20.1355 14.3642C20.205 14.4338 20.2444 14.5278 20.2453 14.6261C20.2462 14.7245 20.2084 14.8192 20.14 14.8899L17.515 17.5149C17.4447 17.5852 17.3494 17.6248 17.2499 17.6248Z" fill="#E92FCB"/>
<path d="M17.25 17.6248C17.1506 17.6248 17.0552 17.5852 16.9849 17.5149L15.4849 16.0149C15.4166 15.9442 15.3788 15.8495 15.3797 15.7511C15.3805 15.6528 15.4199 15.5588 15.4895 15.4892C15.559 15.4197 15.6531 15.3803 15.7514 15.3794C15.8497 15.3786 15.9444 15.4164 16.0152 15.4847L17.5152 16.9847C17.5676 17.0371 17.6033 17.1039 17.6177 17.1767C17.6322 17.2494 17.6248 17.3248 17.5964 17.3933C17.568 17.4618 17.52 17.5204 17.4583 17.5616C17.3967 17.6028 17.3242 17.6248 17.25 17.6248Z" fill="#E92FCB"/>
<path d="M17.25 13.875C17.1505 13.875 17.0552 13.8355 16.9848 13.7652C16.9145 13.6948 16.875 13.5995 16.875 13.5V12.75C16.875 12.6505 16.9145 12.5552 16.9848 12.4848C17.0552 12.4145 17.1505 12.375 17.25 12.375C17.3495 12.375 17.4448 12.4145 17.5152 12.4848C17.5855 12.5552 17.625 12.6505 17.625 12.75V13.5C17.625 13.5995 17.5855 13.6948 17.5152 13.7652C17.4448 13.8355 17.3495 13.875 17.25 13.875Z" fill="#E92FCB"/>
<path d="M13.5 17.625H12.75C12.6505 17.625 12.5552 17.5855 12.4848 17.5152C12.4145 17.4448 12.375 17.3495 12.375 17.25C12.375 17.1505 12.4145 17.0552 12.4848 16.9848C12.5552 16.9145 12.6505 16.875 12.75 16.875H13.5C13.5995 16.875 13.6948 16.9145 13.7652 16.9848C13.8355 17.0552 13.875 17.1505 13.875 17.25C13.875 17.3495 13.8355 17.4448 13.7652 17.5152C13.6948 17.5855 13.5995 17.625 13.5 17.625Z" fill="#E92FCB"/>
<path d="M17.25 22.125C17.1505 22.125 17.0552 22.0855 16.9848 22.0152C16.9145 21.9448 16.875 21.8495 16.875 21.75V21C16.875 20.9005 16.9145 20.8052 16.9848 20.7348C17.0552 20.6645 17.1505 20.625 17.25 20.625C17.3495 20.625 17.4448 20.6645 17.5152 20.7348C17.5855 20.8052 17.625 20.9005 17.625 21V21.75C17.625 21.8495 17.5855 21.9448 17.5152 22.0152C17.4448 22.0855 17.3495 22.125 17.25 22.125Z" fill="#E92FCB"/>
<path d="M21.75 17.625H21C20.9005 17.625 20.8052 17.5855 20.7348 17.5152C20.6645 17.4448 20.625 17.3495 20.625 17.25C20.625 17.1505 20.6645 17.0552 20.7348 16.9848C20.8052 16.9145 20.9005 16.875 21 16.875H21.75C21.8495 16.875 21.9448 16.9145 22.0152 16.9848C22.0855 17.0552 22.125 17.1505 22.125 17.25C22.125 17.3495 22.0855 17.4448 22.0152 17.5152C21.9448 17.5855 21.8495 17.625 21.75 17.625Z" fill="#E92FCB"/>
<path d="M12 23.25C9.77497 23.25 7.59989 22.5902 5.74984 21.354C3.89979 20.1179 2.45785 18.3609 1.60636 16.3052C0.754875 14.2495 0.532087 11.9875 0.966171 9.80524C1.40025 7.62295 2.47171 5.61839 4.04505 4.04505C5.61839 2.47171 7.62295 1.40025 9.80524 0.966171C11.9875 0.532087 14.2495 0.754875 16.3052 1.60636C18.3609 2.45785 20.1179 3.89979 21.354 5.74984C22.5902 7.59989 23.25 9.77497 23.25 12C23.2498 12.3883 23.23 12.7762 23.1908 13.1625C23.1864 13.2118 23.1721 13.2598 23.1489 13.3035C23.1256 13.3473 23.0938 13.3859 23.0553 13.4171C23.0169 13.4483 22.9725 13.4714 22.9249 13.4852C22.8773 13.4989 22.8274 13.5029 22.7783 13.497C22.7292 13.492 22.6816 13.4773 22.6382 13.4538C22.5948 13.4303 22.5565 13.3985 22.5254 13.3602C22.4943 13.3219 22.4711 13.2778 22.4571 13.2305C22.4431 13.1832 22.4386 13.1336 22.4438 13.0845C22.4809 12.7242 22.4997 12.3622 22.5 12C22.5 9.9233 21.8842 7.89323 20.7304 6.16652C19.5767 4.4398 17.9368 3.09399 16.0182 2.29927C14.0996 1.50455 11.9884 1.29661 9.95156 1.70176C7.91476 2.1069 6.04384 3.10693 4.57538 4.57538C3.10693 6.04384 2.1069 7.91476 1.70176 9.95156C1.29661 11.9884 1.50455 14.0996 2.29927 16.0182C3.09399 17.9368 4.4398 19.5767 6.16652 20.7304C7.89323 21.8842 9.9233 22.5 12 22.5C12.3632 22.5 12.7262 22.4815 13.0875 22.4445C13.137 22.4384 13.1872 22.4423 13.2351 22.4558C13.2831 22.4694 13.3279 22.4923 13.3669 22.5234C13.4059 22.5545 13.4383 22.593 13.4622 22.6367C13.4861 22.6804 13.5011 22.7285 13.5062 22.7781C13.5114 22.8277 13.5066 22.8778 13.4921 22.9255C13.4776 22.9732 13.4538 23.0175 13.422 23.0559C13.3902 23.0943 13.3511 23.126 13.3069 23.149C13.2628 23.1721 13.2144 23.1862 13.1648 23.1904C12.7778 23.2302 12.389 23.2501 12 23.25Z" fill="#E92FCB"/>
<path d="M8.30766 19.3378C8.24016 19.3378 8.17041 19.3355 8.09916 19.3303C6.73829 19.2335 4.99754 18.2803 4.57416 17.0124C4.05479 15.4502 1.91241 12.8124 0.957288 12.3377C0.868274 12.2932 0.800567 12.2152 0.769061 12.1208C0.737555 12.0264 0.744831 11.9234 0.789288 11.8344C0.833744 11.7454 0.911741 11.6777 1.00612 11.6462C1.1005 11.6147 1.20352 11.6219 1.29254 11.6664C2.52554 12.2814 4.72829 15.0992 5.28741 16.775C5.59566 17.6998 7.08066 18.506 8.15279 18.5821C8.56529 18.611 8.86116 18.5274 8.94591 18.3572C9.12066 18.0077 8.95454 17.369 8.79366 16.7514C8.53979 15.7764 8.25254 14.6735 9.01641 13.9097C10.1658 12.7599 10.357 12.5184 9.56016 11.7212C9.14279 11.3038 8.00879 11.0413 7.01016 10.8099C5.66241 10.5002 4.82241 10.2808 4.57491 9.75653C4.52761 9.65533 4.50476 9.54443 4.50821 9.43278C4.51167 9.32113 4.54132 9.21185 4.59479 9.11378C4.91166 8.48003 5.77566 8.29103 6.61191 8.1084C7.66829 7.8774 8.36129 7.68278 8.36129 7.1064C8.36129 5.9064 6.47429 3.93615 5.74716 3.2784C5.71062 3.24536 5.68095 3.20544 5.65983 3.16093C5.63872 3.11642 5.62658 3.06818 5.62411 3.01898C5.61912 2.91961 5.6538 2.82232 5.72054 2.74853C5.78727 2.67473 5.88059 2.63047 5.97996 2.62547C6.07933 2.62048 6.17662 2.65517 6.25041 2.7219C6.54291 2.98665 9.11129 5.35928 9.11129 7.1064C9.11129 8.32965 7.81416 8.61315 6.77204 8.84115C6.13904 8.97915 5.42204 9.13628 5.26566 9.44903C5.37516 9.66278 6.50316 9.9234 7.17816 10.0794C8.33016 10.346 9.52154 10.622 10.0904 11.1913C11.443 12.5443 10.606 13.3809 9.54666 14.4403C9.08616 14.9004 9.29654 15.7078 9.51929 16.5628C9.71504 17.3128 9.91754 18.0917 9.61716 18.6928C9.40679 19.1124 8.94554 19.3378 8.30766 19.3378Z" fill="#E92FCB"/>
<path d="M14.1791 8.13282C14.0592 8.13807 13.9395 8.11908 13.8271 8.07701C13.7148 8.03493 13.612 7.97063 13.5251 7.88795C12.9764 7.33932 13.3672 6.16857 13.8194 4.81295C14.4247 2.99645 17.2439 2.41295 17.3639 2.38932C17.4605 2.3718 17.5601 2.39285 17.6414 2.44796C17.7226 2.50306 17.779 2.58782 17.7985 2.68404C17.8179 2.78026 17.7988 2.88026 17.7454 2.96258C17.6919 3.0449 17.6083 3.10297 17.5124 3.12432C17.4873 3.1292 14.9999 3.64595 14.5316 5.04995C14.2886 5.77932 13.8363 7.13683 14.0564 7.3577C14.0801 7.38057 14.2289 7.41807 14.6013 7.29432C15.0485 7.13934 15.4652 6.90763 15.8328 6.60957C16.1288 6.32577 16.5022 6.13605 16.906 6.06436C17.3097 5.99268 17.7256 6.04226 18.1012 6.20682C19.4339 6.65157 20.3512 5.32332 20.3887 5.26632C20.4448 5.18557 20.5304 5.13007 20.627 5.11179C20.7236 5.09351 20.8235 5.1139 20.9052 5.16858C20.9869 5.22325 21.0439 5.30784 21.0639 5.40412C21.0838 5.5004 21.0652 5.60066 21.0119 5.68332C20.5811 6.32982 19.3676 7.4192 17.8619 6.91857C17.0399 6.64445 16.7857 6.83345 16.2791 7.21107C15.8478 7.55752 15.3597 7.82651 14.8364 8.00607C14.6254 8.08287 14.4035 8.12565 14.1791 8.13282Z" fill="#E92FCB"/>
<path d="M21.3442 10.9876C20.8767 10.9994 20.4128 10.903 19.9886 10.706C19.4261 10.4243 16.5641 9.09346 15.5745 10.5788C15.5472 10.6198 15.512 10.655 15.4711 10.6824C15.4302 10.7098 15.3842 10.7288 15.3359 10.7385C15.2877 10.7481 15.2379 10.7482 15.1896 10.7386C15.1413 10.729 15.0953 10.71 15.0544 10.6827C15.0134 10.6554 14.9782 10.6202 14.9508 10.5793C14.9234 10.5384 14.9044 10.4925 14.8947 10.4442C14.8851 10.3959 14.885 10.3461 14.8946 10.2978C14.9042 10.2495 14.9232 10.2036 14.9505 10.1626C16.2555 8.20471 19.3935 9.57008 20.3239 10.0351C20.934 10.3407 21.7976 10.2323 22.2577 10.1405C22.4179 10.1086 22.5499 10.0748 22.6384 10.0497C22.6858 10.0364 22.7354 10.0325 22.7843 10.0384C22.8332 10.0442 22.8805 10.0596 22.9234 10.0837C22.9664 10.1079 23.0042 10.1402 23.0346 10.1789C23.0651 10.2176 23.0876 10.262 23.1009 10.3094C23.1143 10.3568 23.1181 10.4064 23.1123 10.4553C23.1064 10.5042 23.091 10.5515 23.0669 10.5945C23.0428 10.6374 23.0104 10.6752 22.9717 10.7056C22.933 10.7361 22.8887 10.7586 22.8412 10.772C22.7396 10.8005 22.5885 10.8391 22.4047 10.8758C22.0557 10.9476 21.7005 10.985 21.3442 10.9876Z" fill="#E92FCB"/>
</svg>
