<svg width="24" height="24" viewBox="0 0 24 24" fill="none" xmlns="http://www.w3.org/2000/svg">
<g clip-path="url(#clip0_133_323)">
<path d="M6.27341 7.00033C6.08407 7.10141 6.00808 7.33378 6.10129 7.52714C6.19449 7.72033 6.42374 7.80566 6.62059 7.72033C7.1062 7.48539 7.6266 7.32993 8.16147 7.25998C8.37681 7.22757 8.52678 7.0289 8.49876 6.81301C8.47075 6.59712 8.27518 6.44313 8.05874 6.46675C7.43891 6.54787 6.83611 6.72805 6.27341 7.00033Z" fill="#55B8D7"/>
<path d="M2.86598 17.1914C2.64515 17.1914 2.46606 17.3705 2.46606 17.5913V18.6369C2.46625 19.1611 2.56806 19.6801 2.766 20.1655C2.81727 20.3014 2.93813 20.3988 3.08187 20.42C3.22561 20.4413 3.36935 20.3829 3.4578 20.2677C3.54624 20.1523 3.5651 19.9983 3.50724 19.865C3.34646 19.4673 3.26498 19.0419 3.26718 18.6129V17.5913C3.26718 17.4851 3.22488 17.3831 3.14962 17.3081C3.07436 17.233 2.97237 17.191 2.86598 17.1914Z" fill="#55B8D7"/>
<path d="M4.67689 9.15605C4.91476 8.90281 5.17587 8.67246 5.4564 8.46756C5.57194 8.38351 5.63383 8.24416 5.61882 8.10207C5.6038 7.95979 5.51408 7.83655 5.38352 7.77851C5.25278 7.72064 5.10116 7.73658 4.98562 7.82081C4.66572 8.05446 4.3678 8.31722 4.09607 8.60562C3.54362 9.17894 3.11148 9.85737 2.82564 10.6004C2.57386 11.2437 2.44513 11.9285 2.44605 12.6192V15.9887C2.44605 16.2095 2.62513 16.3886 2.84596 16.3886C3.06698 16.3886 3.24606 16.2095 3.24606 15.9887V12.6192C3.24533 12.0263 3.35593 11.4385 3.572 10.8865C3.82085 10.2415 4.19659 9.6532 4.67689 9.15605Z" fill="#55B8D7"/>
<path d="M9.73869 6.48029C9.52262 6.45282 9.32431 6.60315 9.29245 6.81849C9.26058 7.03383 9.40671 7.23525 9.6215 7.27151C10.3334 7.37643 11.0152 7.63114 11.6214 8.01879C11.808 8.13726 12.0552 8.08233 12.1737 7.89574C12.2922 7.70933 12.2372 7.46213 12.0507 7.34347C11.3497 6.89577 10.5616 6.60151 9.73869 6.48029Z" fill="#55B8D7"/>
<path d="M8.89661 9.90531C8.87445 9.80277 8.81201 9.71341 8.7232 9.6572C8.63439 9.60117 8.52691 9.58304 8.42473 9.60703L8.38152 9.61343C7.62234 9.72751 6.92304 10.0919 6.39458 10.6486C5.95877 11.129 5.69857 11.743 5.65664 12.3903C5.6484 12.4566 5.6451 12.5234 5.6462 12.5903V14.4899C5.6462 15.2448 5.6462 16.1567 5.6506 17.1192C5.65682 18.5725 6.34111 19.9396 7.50057 20.8158L7.76498 21.0202C10.9923 23.5138 11.0007 23.5191 11.0324 23.5401C11.2141 23.6551 11.4543 23.6048 11.5748 23.4266C11.6967 23.2479 11.6546 23.0045 11.4796 22.8775C11.3972 22.8167 9.87076 21.6374 8.25462 20.3877L7.98984 20.1834C7.02137 19.4515 6.45171 18.3079 6.45061 17.0941C6.44621 16.1536 6.44621 15.2428 6.44621 14.4891V12.5895C6.44493 12.5586 6.44585 12.5275 6.44933 12.4967C6.45171 12.4835 6.45336 12.4702 6.45427 12.4566C6.48265 11.9822 6.67272 11.5317 6.99298 11.1803C7.40206 10.7603 7.93784 10.4861 8.51794 10.4003C8.5335 10.4003 8.57507 10.3918 8.59026 10.3882C8.80689 10.3375 8.94312 10.1229 8.89661 9.90531Z" fill="#55B8D7"/>
<path d="M7.64625 15.4888C7.42542 15.4888 7.24634 15.6679 7.24634 15.8887V16.3644C7.24634 17.8104 7.90188 19.1786 9.02911 20.0845C9.82436 20.7274 10.5456 21.3082 11.0505 21.7133C11.0629 21.7259 11.0763 21.7374 11.0904 21.7482L11.5064 22.0822C11.8457 22.3549 11.8457 22.3549 11.9217 22.3802C12.1125 22.4443 12.3215 22.3565 12.4092 22.1753C12.4969 21.9938 12.4361 21.7757 12.2672 21.6658C12.2314 21.6386 12.142 21.5666 12.0076 21.4586L11.6276 21.1537C11.6161 21.1416 11.6037 21.1302 11.5905 21.1198C11.0845 20.7133 10.3481 20.1197 9.53358 19.4628C8.59404 18.7086 8.04708 17.5691 8.04635 16.3644V15.8887C8.04635 15.6679 7.86727 15.4888 7.64625 15.4888Z" fill="#55B8D7"/>
<path d="M3.30202 2.13009C3.36611 2.13027 3.42928 2.11489 3.48605 2.08541C5.86906 0.849594 8.61042 0.490695 11.2311 1.07098C11.4468 1.11932 11.6609 0.983814 11.7092 0.768109C11.7575 0.552587 11.622 0.33853 11.4063 0.290189C8.60163 -0.331474 5.66782 0.0526932 3.11763 1.37531C2.95429 1.46045 2.87006 1.64613 2.91382 1.82503C2.95759 2.00411 3.11781 2.13009 3.30202 2.13009Z" fill="#55B8D7"/>
<path d="M14.5074 1.44033C14.0107 1.17317 13.4958 0.941171 12.9666 0.745974C12.7602 0.673279 12.5337 0.77985 12.4582 0.985301C12.3828 1.19057 12.4863 1.41836 12.6904 1.49673C13.185 1.67819 13.6662 1.89408 14.1306 2.14275C14.1886 2.17443 14.2536 2.19091 14.3198 2.19072C14.5014 2.18834 14.6585 2.06401 14.7026 1.88786C14.7466 1.7117 14.6664 1.52786 14.5074 1.44033Z" fill="#55B8D7"/>
<path d="M1.32279 5.68393C1.43321 5.68393 1.53886 5.63834 1.61449 5.55795C3.4846 3.5408 6.11243 2.3969 8.86313 2.40258C9.74042 2.40112 10.6139 2.51886 11.4596 2.75269C11.6724 2.81183 11.8931 2.68732 11.9522 2.47436C12.0114 2.26158 11.8868 2.04094 11.6741 1.98179C10.7585 1.72855 9.81293 1.6011 8.86313 1.60257C5.89142 1.59579 3.05209 2.83106 1.03128 5.0099C0.921959 5.12618 0.892112 5.29629 0.955469 5.44278C1.01883 5.58927 1.1633 5.68393 1.32279 5.68393Z" fill="#55B8D7"/>
<path d="M12.6836 2.7279C12.5929 2.92914 12.6825 3.1659 12.8837 3.25672C14.4253 3.95255 15.7703 5.02027 16.7973 6.36412C16.9317 6.53954 17.1828 6.57287 17.3582 6.43846C17.5336 6.30424 17.567 6.05302 17.4326 5.8776C16.3249 4.42864 14.8749 3.27723 13.2124 2.52684C13.1157 2.48326 13.0055 2.48015 12.9064 2.51787C12.8072 2.55559 12.727 2.63122 12.6836 2.7279Z" fill="#55B8D7"/>
<path d="M3.89962 5.64873C4.65751 5.08237 5.50715 4.65059 6.41135 4.37227C6.62248 4.30689 6.74059 4.08295 6.6754 3.87182C6.61003 3.66069 6.38608 3.54259 6.17496 3.60778C5.18341 3.91321 4.25192 4.38691 3.42078 5.00784C3.24408 5.14042 3.20819 5.3911 3.34076 5.5678C3.47333 5.74468 3.7242 5.78039 3.9009 5.64782L3.89962 5.64873Z" fill="#55B8D7"/>
<path d="M0.326098 10.2082C0.364918 10.2203 0.405385 10.2267 0.446036 10.2271C0.620541 10.2269 0.774904 10.1135 0.827274 9.9471C1.20338 8.75321 1.83805 7.65693 2.68604 6.73606C2.78272 6.63095 2.81586 6.48209 2.7732 6.34567C2.73035 6.20925 2.6181 6.10616 2.47857 6.07503C2.33904 6.0439 2.19347 6.08968 2.09678 6.19497C1.16969 7.20153 0.475883 8.40036 0.0647983 9.70576C0.0327538 9.80702 0.0422756 9.91689 0.0911663 10.0112C0.14024 10.1055 0.224654 10.1764 0.326098 10.2082Z" fill="#55B8D7"/>
<path d="M8.00105 3.26349C7.8575 3.27796 7.73298 3.36841 7.67475 3.50044C7.6167 3.63228 7.6341 3.78536 7.72035 3.9009C7.80659 4.01644 7.9485 4.07669 8.09151 4.05838C8.39694 4.02359 8.70402 4.00582 9.01146 4.00527C12.2223 4.04373 15.1245 5.92666 16.4681 8.84289C16.5273 8.9751 16.6531 9.06501 16.797 9.07801C16.9411 9.09119 17.0812 9.02545 17.163 8.90625C17.2451 8.78686 17.256 8.63268 17.1921 8.50285C15.7168 5.30646 12.5334 3.24445 9.01311 3.20508C8.6749 3.20563 8.33706 3.22504 8.00105 3.26349Z" fill="#55B8D7"/>
<path d="M2.29161 9.73065C3.51626 7.12809 6.17522 5.50701 9.04952 5.61046C9.19234 5.61431 9.32638 5.54161 9.40127 5.41966C9.47598 5.29771 9.48001 5.14536 9.41189 5.01956C9.34359 4.89395 9.21358 4.8143 9.07076 4.81045C5.87839 4.70022 2.92719 6.50167 1.56612 9.39135C1.14753 10.2771 0.905458 11.2356 0.853272 12.2138C0.849976 12.3462 0.845947 12.4826 0.845947 12.619C0.845947 13.5156 0.845947 13.9959 0.850891 14.0471C0.864625 14.2575 1.04005 14.4205 1.25081 14.4188H1.27003C1.49032 14.4077 1.66006 14.2205 1.64962 14.0003C1.64596 13.8952 1.64596 12.6855 1.64596 12.619C1.64596 12.4914 1.64999 12.3634 1.65365 12.2495C1.70126 11.3765 1.91788 10.521 2.29161 9.73065Z" fill="#55B8D7"/>
<path d="M13.0604 6.9201C13.2345 6.9201 13.3887 6.80749 13.4416 6.64141C13.4943 6.47551 13.4337 6.29441 13.2916 6.1937C12.5786 5.68703 11.7813 5.31092 10.9366 5.08295L10.7911 5.04688C10.6526 5.01117 10.5058 5.052 10.4056 5.154C10.3055 5.25599 10.2674 5.40376 10.3056 5.54146C10.3439 5.67916 10.4527 5.78591 10.5911 5.8218L10.7319 5.85659C11.4836 6.06003 12.1933 6.39531 12.828 6.84649C12.8959 6.89465 12.9772 6.92047 13.0604 6.9201Z" fill="#55B8D7"/>
<path d="M5.87555 21.5466L6.75906 22.235C7.5783 22.8751 8.34352 23.4695 8.92197 23.915C9.09666 24.0503 9.34789 24.0183 9.48321 23.8434C9.61834 23.6687 9.5863 23.4175 9.41161 23.2822C8.83353 22.8354 8.06959 22.2399 7.25144 21.6021L6.36628 20.9155C5.40989 20.1865 4.84774 19.0534 4.84628 17.8509V12.6106C4.84628 12.4469 4.85781 12.2832 4.88107 12.1212C4.94754 11.609 5.12497 11.1175 5.40111 10.681C5.72009 10.174 6.15131 9.74678 6.66146 9.43256C7.45964 8.93999 8.39827 8.7252 9.33122 8.82188C9.53796 8.84257 9.74286 8.87919 9.94391 8.93138C10.0836 8.97075 10.2334 8.93138 10.3358 8.82866C10.4381 8.72593 10.477 8.57596 10.437 8.43661C10.3973 8.29708 10.2852 8.19015 10.1441 8.157C9.90308 8.09474 9.65789 8.0508 9.41033 8.02571C8.30177 7.91255 7.18699 8.16799 6.23829 8.75266C5.62468 9.13097 5.10611 9.64515 4.72231 10.2555C4.38465 10.7876 4.1673 11.3867 4.08508 12.0115C4.05689 12.2104 4.04297 12.4107 4.04297 12.6116V17.8709C4.04938 19.3143 4.72652 20.6727 5.87555 21.5466Z" fill="#55B8D7"/>
<path d="M15.9093 11.3411C15.5871 11.0181 15.1989 10.7685 14.7713 10.6094C14.1365 10.3723 13.4428 10.3419 12.7897 10.5226C12.2583 10.6693 11.774 10.9517 11.3845 11.3419C11.3317 11.3942 11.2841 11.4466 11.244 11.4951C10.132 12.7612 10.1935 14.673 11.3845 15.8653C11.4513 15.933 11.5216 15.9973 11.5952 16.0575C12.9096 17.1428 14.8438 17.0075 15.9941 15.7499C17.1444 14.4921 17.1073 12.5535 15.9093 11.3411ZM15.3437 15.3011C14.46 16.1729 13.0594 16.2335 12.1037 15.4412C12.0503 15.3972 11.999 15.3505 11.9505 15.3011C11.056 14.4044 11.0124 12.9668 11.8509 12.0176C11.8833 11.9774 11.9157 11.943 11.9505 11.9082C12.2424 11.6156 12.6053 11.4041 13.0037 11.2943C13.2121 11.236 13.4275 11.2067 13.6437 11.2071C13.9332 11.2069 14.2203 11.2589 14.4913 11.3602C15.2538 11.6477 15.8185 12.3021 15.9908 13.0985C16.1631 13.8948 15.9196 14.7243 15.3443 15.3011H15.3437Z" fill="#55B8D7"/>
<path d="M18.7265 16.8957L17.8158 15.9697C18.6533 14.4911 18.6473 12.68 17.7995 11.207C16.9518 9.73407 15.389 8.81888 13.6895 8.80038C12.4022 8.79251 11.165 9.29954 10.2534 10.2087C8.52194 11.925 8.35421 14.6675 9.86378 16.5819C11.3733 18.4963 14.0794 18.9726 16.152 17.689L17.0489 18.601H17.0469C16.7413 18.9147 16.7413 19.415 17.0469 19.7286L20.6703 23.4116C21.0389 23.7879 21.5435 23.9999 22.0703 23.9999C22.597 23.9999 23.1016 23.7879 23.4702 23.4116C24.2371 22.6251 24.2371 21.3708 23.4702 20.5843L19.8466 16.9018C19.5353 16.5996 19.0409 16.5969 18.7265 16.8957ZM10.8183 16.427C10.0678 15.678 9.64587 14.6614 9.64587 13.601C9.64587 12.5408 10.0678 11.524 10.8183 10.7752C11.1705 10.4204 11.5872 10.1364 12.0463 9.93842C12.5546 9.71594 13.1032 9.60095 13.658 9.6004H13.6827C14.4154 9.60699 15.1319 9.81647 15.7528 10.2052C16.0145 10.3664 16.2562 10.5577 16.4728 10.7756C17.2236 11.5243 17.6453 12.541 17.6453 13.6012C17.6453 14.6614 17.2236 15.6782 16.4728 16.427C16.3011 16.5993 16.1135 16.7553 15.9129 16.893C14.3266 17.994 12.1787 17.7976 10.8183 16.427ZM16.8017 17.2078C16.8817 17.1382 16.9617 17.0686 17.037 16.9933C17.1492 16.8815 17.2558 16.7641 17.3569 16.643L18.1666 17.4658L17.6118 18.0294L16.8017 17.2078ZM22.8998 22.8507C22.4388 23.3021 21.7017 23.3021 21.2407 22.8507L17.6173 19.1627L18.9774 17.7703C18.9875 17.7642 18.9974 17.7576 19.0069 17.7505C19.0159 17.7393 19.0237 17.7274 19.0309 17.715L19.2773 17.4626L22.9008 21.1456C23.3627 21.6202 23.3624 22.3766 22.8998 22.8507Z" fill="#55B8D7"/>
</g>
<defs>
<clipPath id="clip0_133_323">
<rect width="24" height="24" fill="white"/>
</clipPath>
</defs>
</svg>
