<svg width="24" height="24" viewBox="0 0 24 24" fill="none" xmlns="http://www.w3.org/2000/svg">
<path d="M17.25 23.25C16.0633 23.25 14.9033 22.8981 13.9166 22.2388C12.9299 21.5795 12.1609 20.6425 11.7067 19.5461C11.2526 18.4497 11.1338 17.2433 11.3653 16.0795C11.5968 14.9156 12.1682 13.8465 13.0074 13.0074C13.8465 12.1682 14.9156 11.5968 16.0795 11.3653C17.2433 11.1338 18.4497 11.2526 19.5461 11.7067C20.6425 12.1609 21.5795 12.9299 22.2388 13.9166C22.8981 14.9033 23.25 16.0633 23.25 17.25C23.2481 18.8407 22.6154 20.3658 21.4906 21.4906C20.3658 22.6154 18.8407 23.2481 17.25 23.25ZM17.25 12C16.2117 12 15.1966 12.3079 14.3333 12.8848C13.4699 13.4617 12.797 14.2816 12.3996 15.2409C12.0023 16.2002 11.8983 17.2558 12.1009 18.2742C12.3035 19.2926 12.8035 20.2281 13.5377 20.9623C14.2719 21.6965 15.2074 22.1966 16.2258 22.3991C17.2442 22.6017 18.2998 22.4977 19.2591 22.1004C20.2184 21.703 21.0383 21.0301 21.6152 20.1667C22.1921 19.3034 22.5 18.2884 22.5 17.25C22.4985 15.8581 21.9449 14.5236 20.9607 13.5393C19.9764 12.5551 18.6419 12.0015 17.25 12Z" fill="white"/>
<path d="M17.25 17.625C17.1759 17.625 17.1034 17.603 17.0417 17.5618C16.9801 17.5206 16.932 17.462 16.9037 17.3935C16.8753 17.325 16.8679 17.2496 16.8823 17.1769C16.8968 17.1042 16.9325 17.0373 16.9849 16.9849L19.6099 14.3599C19.6806 14.2916 19.7754 14.2538 19.8737 14.2547C19.972 14.2555 20.0661 14.2949 20.1356 14.3645C20.2051 14.434 20.2446 14.5281 20.2454 14.6264C20.2463 14.7247 20.2085 14.8194 20.1402 14.8902L17.5152 17.5152C17.4449 17.5855 17.3495 17.625 17.25 17.625Z" fill="white"/>
<path d="M17.25 17.625C17.1506 17.625 17.0552 17.5855 16.9849 17.5152L15.4849 16.0152C15.4166 15.9444 15.3788 15.8497 15.3797 15.7514C15.3805 15.6531 15.4199 15.559 15.4895 15.4895C15.559 15.4199 15.6531 15.3805 15.7514 15.3797C15.8497 15.3788 15.9444 15.4166 16.0152 15.4849L17.5152 16.9849C17.5676 17.0373 17.6033 17.1042 17.6177 17.1769C17.6322 17.2496 17.6248 17.325 17.5964 17.3935C17.568 17.462 17.52 17.5206 17.4583 17.5618C17.3967 17.603 17.3242 17.625 17.25 17.625Z" fill="white"/>
<path d="M17.25 13.875C17.1505 13.875 17.0552 13.8355 16.9848 13.7652C16.9145 13.6948 16.875 13.5995 16.875 13.5V12.75C16.875 12.6505 16.9145 12.5552 16.9848 12.4848C17.0552 12.4145 17.1505 12.375 17.25 12.375C17.3495 12.375 17.4448 12.4145 17.5152 12.4848C17.5855 12.5552 17.625 12.6505 17.625 12.75V13.5C17.625 13.5995 17.5855 13.6948 17.5152 13.7652C17.4448 13.8355 17.3495 13.875 17.25 13.875Z" fill="white"/>
<path d="M13.5 17.625H12.75C12.6505 17.625 12.5552 17.5855 12.4848 17.5152C12.4145 17.4448 12.375 17.3495 12.375 17.25C12.375 17.1505 12.4145 17.0552 12.4848 16.9848C12.5552 16.9145 12.6505 16.875 12.75 16.875H13.5C13.5995 16.875 13.6948 16.9145 13.7652 16.9848C13.8355 17.0552 13.875 17.1505 13.875 17.25C13.875 17.3495 13.8355 17.4448 13.7652 17.5152C13.6948 17.5855 13.5995 17.625 13.5 17.625Z" fill="white"/>
<path d="M17.25 22.125C17.1505 22.125 17.0552 22.0855 16.9848 22.0152C16.9145 21.9448 16.875 21.8495 16.875 21.75V21C16.875 20.9005 16.9145 20.8052 16.9848 20.7348C17.0552 20.6645 17.1505 20.625 17.25 20.625C17.3495 20.625 17.4448 20.6645 17.5152 20.7348C17.5855 20.8052 17.625 20.9005 17.625 21V21.75C17.625 21.8495 17.5855 21.9448 17.5152 22.0152C17.4448 22.0855 17.3495 22.125 17.25 22.125Z" fill="white"/>
<path d="M21.75 17.625H21C20.9005 17.625 20.8052 17.5855 20.7348 17.5152C20.6645 17.4448 20.625 17.3495 20.625 17.25C20.625 17.1505 20.6645 17.0552 20.7348 16.9848C20.8052 16.9145 20.9005 16.875 21 16.875H21.75C21.8495 16.875 21.9448 16.9145 22.0152 16.9848C22.0855 17.0552 22.125 17.1505 22.125 17.25C22.125 17.3495 22.0855 17.4448 22.0152 17.5152C21.9448 17.5855 21.8495 17.625 21.75 17.625Z" fill="white"/>
<path d="M12 23.25C9.77497 23.25 7.59989 22.5902 5.74984 21.354C3.89979 20.1179 2.45785 18.3609 1.60636 16.3052C0.754875 14.2495 0.532087 11.9875 0.966171 9.80524C1.40025 7.62295 2.47171 5.61839 4.04505 4.04505C5.61839 2.47171 7.62295 1.40025 9.80524 0.966171C11.9875 0.532087 14.2495 0.754875 16.3052 1.60636C18.3609 2.45785 20.1179 3.89979 21.354 5.74984C22.5902 7.59989 23.25 9.77497 23.25 12C23.2498 12.3883 23.23 12.7762 23.1908 13.1625C23.1864 13.2118 23.1721 13.2598 23.1489 13.3035C23.1256 13.3473 23.0938 13.3859 23.0553 13.4171C23.0169 13.4483 22.9725 13.4714 22.9249 13.4852C22.8773 13.4989 22.8274 13.5029 22.7783 13.497C22.7292 13.492 22.6816 13.4773 22.6382 13.4538C22.5948 13.4303 22.5565 13.3985 22.5254 13.3602C22.4943 13.3219 22.4711 13.2778 22.4571 13.2305C22.4431 13.1832 22.4386 13.1336 22.4438 13.0845C22.4809 12.7242 22.4997 12.3622 22.5 12C22.5 9.9233 21.8842 7.89323 20.7304 6.16652C19.5767 4.4398 17.9368 3.09399 16.0182 2.29927C14.0996 1.50455 11.9884 1.29661 9.95156 1.70176C7.91476 2.1069 6.04384 3.10693 4.57538 4.57538C3.10693 6.04384 2.1069 7.91476 1.70176 9.95156C1.29661 11.9884 1.50455 14.0996 2.29927 16.0182C3.09399 17.9368 4.4398 19.5767 6.16652 20.7304C7.89323 21.8842 9.9233 22.5 12 22.5C12.3632 22.5 12.7262 22.4815 13.0875 22.4445C13.137 22.4384 13.1872 22.4423 13.2351 22.4558C13.2831 22.4694 13.3279 22.4923 13.3669 22.5234C13.4059 22.5545 13.4383 22.593 13.4622 22.6367C13.4861 22.6804 13.5011 22.7285 13.5062 22.7781C13.5114 22.8277 13.5066 22.8778 13.4921 22.9255C13.4776 22.9732 13.4538 23.0175 13.422 23.0559C13.3902 23.0943 13.3511 23.126 13.3069 23.149C13.2628 23.1721 13.2144 23.1862 13.1648 23.1904C12.7778 23.2302 12.389 23.2501 12 23.25Z" fill="white"/>
<path d="M8.30778 19.3377C8.24028 19.3377 8.17053 19.3354 8.09928 19.3302C6.73841 19.2334 4.99766 18.2802 4.57428 17.0123C4.05491 15.45 1.91253 12.8123 0.95741 12.3375C0.868396 12.2931 0.800689 12.2151 0.769183 12.1207C0.737677 12.0263 0.744953 11.9233 0.78941 11.8343C0.833867 11.7453 0.911863 11.6776 1.00624 11.6461C1.10062 11.6145 1.20365 11.6218 1.29266 11.6663C2.52566 12.2813 4.72841 15.099 5.28753 16.7749C5.59578 17.6997 7.08078 18.5059 8.15291 18.582C8.56541 18.6109 8.86129 18.5273 8.94604 18.357C9.12078 18.0075 8.95466 17.3689 8.79379 16.7513C8.53991 15.7763 8.25266 14.6734 9.01653 13.9095C10.1659 12.7598 10.3572 12.5183 9.56028 11.721C9.14291 11.3037 8.00891 11.0412 7.01028 10.8098C5.66253 10.5 4.82253 10.2807 4.57503 9.7564C4.52773 9.65521 4.50488 9.54431 4.50834 9.43266C4.51179 9.32101 4.54144 9.21173 4.59491 9.11365C4.91178 8.4799 5.77578 8.2909 6.61203 8.10828C7.66841 7.87728 8.36141 7.68265 8.36141 7.10628C8.36141 5.90628 6.47441 3.93603 5.74728 3.27828C5.71074 3.24524 5.68107 3.20532 5.65996 3.16081C5.63884 3.11629 5.6267 3.06806 5.62423 3.01886C5.61924 2.91948 5.65392 2.8222 5.72066 2.7484C5.78739 2.67461 5.88071 2.63034 5.98008 2.62535C6.07945 2.62036 6.17674 2.65504 6.25053 2.72178C6.54303 2.98653 9.11141 5.35915 9.11141 7.10628C9.11141 8.32953 7.81428 8.61303 6.77216 8.84103C6.13916 8.97903 5.42216 9.13615 5.26578 9.4489C5.37528 9.66265 6.50328 9.92328 7.17828 10.0793C8.33028 10.3459 9.52166 10.6219 10.0905 11.1912C11.4432 12.5442 10.6062 13.3808 9.54678 14.4402C9.08628 14.9003 9.29666 15.7077 9.51941 16.5627C9.71516 17.3127 9.91766 18.0915 9.61728 18.6927C9.40691 19.1123 8.94566 19.3377 8.30778 19.3377Z" fill="white"/>
<path d="M14.1792 8.13258C14.0593 8.13782 13.9396 8.11884 13.8272 8.07676C13.7149 8.03469 13.6121 7.97039 13.5252 7.88771C12.9766 7.33908 13.3673 6.16833 13.8196 4.81271C14.4248 2.99621 17.2441 2.41271 17.3641 2.38908C17.4607 2.37156 17.5603 2.39261 17.6415 2.44771C17.7227 2.50281 17.7791 2.58757 17.7986 2.68379C17.818 2.78001 17.799 2.88002 17.7455 2.96234C17.692 3.04466 17.6084 3.10273 17.5126 3.12408C17.4874 3.12896 15.0001 3.64571 14.5317 5.04971C14.2887 5.77908 13.8364 7.13658 14.0566 7.35746C14.0802 7.38033 14.2291 7.41783 14.6014 7.29408C15.0486 7.1391 15.4653 6.90738 15.8329 6.60933C16.1289 6.32553 16.5023 6.1358 16.9061 6.06412C17.3098 5.99244 17.7257 6.04201 18.1013 6.20658C19.4341 6.65133 20.3513 5.32308 20.3888 5.26608C20.4449 5.18532 20.5305 5.12983 20.6271 5.11155C20.7237 5.09326 20.8236 5.11366 20.9053 5.16833C20.9871 5.22301 21.044 5.3076 21.064 5.40388C21.084 5.50015 21.0653 5.60042 21.0121 5.68308C20.5812 6.32958 19.3677 7.41896 17.8621 6.91833C17.0401 6.64421 16.7858 6.83321 16.2792 7.21083C15.8479 7.55727 15.3598 7.82626 14.8366 8.00583C14.6255 8.08263 14.4036 8.12541 14.1792 8.13258Z" fill="white"/>
<path d="M21.3442 10.9875C20.8767 10.9993 20.4128 10.9029 19.9886 10.7058C19.4261 10.4242 16.5641 9.09333 15.5745 10.5787C15.5472 10.6197 15.512 10.6549 15.4711 10.6823C15.4302 10.7097 15.3842 10.7287 15.3359 10.7384C15.2877 10.748 15.2379 10.7481 15.1896 10.7385C15.1413 10.7289 15.0953 10.7099 15.0544 10.6826C15.0134 10.6553 14.9782 10.6201 14.9508 10.5792C14.9234 10.5383 14.9044 10.4923 14.8947 10.444C14.8851 10.3957 14.885 10.346 14.8946 10.2977C14.9042 10.2494 14.9232 10.2034 14.9505 10.1625C16.2555 8.20458 19.3935 9.56996 20.3239 10.035C20.934 10.3406 21.7976 10.2322 22.2577 10.1403C22.4179 10.1085 22.5499 10.0747 22.6384 10.0496C22.6858 10.0363 22.7354 10.0324 22.7843 10.0383C22.8332 10.0441 22.8805 10.0595 22.9234 10.0836C22.9664 10.1077 23.0042 10.1401 23.0346 10.1788C23.0651 10.2175 23.0876 10.2618 23.1009 10.3093C23.1143 10.3567 23.1181 10.4063 23.1123 10.4552C23.1064 10.5041 23.091 10.5514 23.0669 10.5943C23.0428 10.6373 23.0104 10.6751 22.9717 10.7055C22.933 10.736 22.8887 10.7585 22.8412 10.7718C22.7396 10.8003 22.5885 10.839 22.4047 10.8757C22.0557 10.9474 21.7005 10.9849 21.3442 10.9875Z" fill="white"/>
</svg>
